<svg width="88" height="88" viewBox="0 0 88 88" fill="none" xmlns="http://www.w3.org/2000/svg">
<g clip-path="url(#clip0_29_17)">
<path d="M59.6778 51.7705L47.4081 42.5684V23.8233C47.4081 21.9385 45.8846 20.415 43.9998 20.415C42.1151 20.415 40.5916 21.9385 40.5916 23.8233V44.2727C40.5916 45.3462 41.096 46.3585 41.9549 46.9993L55.5876 57.224C56.1759 57.6672 56.8926 57.9065 57.6292 57.9056C58.6687 57.9056 59.6912 57.4386 60.3592 56.5389C61.491 55.0357 61.1842 52.8987 59.6778 51.7705Z" fill="#00FF88"/>
<path d="M44 0C19.7369 0 0 19.7369 0 44C0 68.2631 19.7369 88 44 88C68.2631 88 88 68.2631 88 44C88 19.7369 68.2631 0 44 0ZM44 81.1836C23.4996 81.1836 6.81639 64.5004 6.81639 44C6.81639 23.4996 23.4996 6.81639 44 6.81639C64.5038 6.81639 81.1836 23.4996 81.1836 44C81.1836 64.5004 64.5004 81.1836 44 81.1836Z" fill="#00FF88"/>
</g>
<defs>
<clipPath id="clip0_29_17">
<rect width="88" height="88" fill="white"/>
</clipPath>
</defs>
</svg>
