<svg width="88" height="51" viewBox="0 0 88 51" fill="none" xmlns="http://www.w3.org/2000/svg">
<path d="M6.77134 7.10123e-06C4.97079 0.00760232 3.24675 0.729416 1.97737 2.00713C0.710872 3.28191 -4.02089e-06 5.00635 -3.86375e-06 6.80382C-3.70661e-06 8.6013 0.710873 10.3257 1.97738 11.6005L39.3772 49.0215C40.6512 50.2887 42.3747 51 44.1711 51C45.9676 51 47.6911 50.2887 48.9651 49.0215L86.3649 11.6005C87.4789 10.2989 88.061 8.62467 87.9949 6.91231C87.9288 5.19995 87.2194 3.57562 86.0083 2.3639C84.7973 1.15217 83.1739 0.442311 81.4625 0.376172C79.7511 0.310029 78.0778 0.89248 76.777 2.00713L44.1711 34.5974L11.5653 2.00713C10.2959 0.729415 8.57189 0.00760201 6.77134 7.10123e-06Z" fill="#FFAE00"/>
</svg>
