<svg width="647" height="399" viewBox="0 0 647 399" fill="none" xmlns="http://www.w3.org/2000/svg">
<path d="M570.644 0H76.3548C34.2506 0 0 34.2569 0 76.3599V147.077V169.721L22.4087 172.936C35.3639 174.794 45.1346 186.059 45.1346 199.141C45.1346 212.213 35.3689 223.479 22.4201 225.337L0 228.541V251.196V321.924C0 364.018 34.2506 398.275 76.3548 398.275H570.644C612.748 398.275 647 364.018 647 321.924V251.667V226.736L622.096 225.572C607.942 224.91 596.85 213.295 596.85 199.142C596.85 184.989 607.942 173.376 622.106 172.704L647 171.53V146.61V76.3612C647 34.2569 612.749 0 570.644 0ZM620.876 146.61C592.967 147.927 570.726 170.907 570.726 199.142C570.726 227.379 592.967 250.359 620.876 251.665V321.923C620.876 349.659 598.385 372.15 570.644 372.15H76.3548C48.6135 372.15 26.1239 349.659 26.1239 321.923V251.195C51.6298 247.542 71.2585 225.663 71.2585 199.141C71.2585 172.62 51.6298 150.741 26.1239 147.077V76.3599C26.1239 48.6147 48.6147 26.1239 76.3548 26.1239H570.644C598.384 26.1239 620.876 48.6147 620.876 76.3599V146.61Z" fill="#00FF88"/>
<path d="M167.279 295.382H149.997V340.456H167.279V295.382Z" fill="#00FF88"/>
<path d="M167.279 216.194H149.997V261.268H167.279V216.194Z" fill="#00FF88"/>
<path d="M167.279 136.997H149.997V182.08H167.279V136.997Z" fill="#00FF88"/>
<path d="M167.279 57.8193H149.997V102.893H167.279V57.8193Z" fill="#00FF88"/>
</svg>
