<svg width="88" height="51" viewBox="0 0 88 51" fill="none" xmlns="http://www.w3.org/2000/svg">
<path d="M81.2287 51C83.0292 50.9924 84.7532 50.2706 86.0226 48.9929C87.2891 47.7181 88 45.9937 88 44.1962C88 42.3987 87.2891 40.6743 86.0226 39.3995L48.6228 1.9785C47.3488 0.711285 45.6253 0 43.8289 0C42.0324 0 40.3089 0.711285 39.0349 1.9785L1.6351 39.3995C0.521086 40.7011 -0.0610322 42.3753 0.00507129 44.0877C0.0711748 45.8 0.780631 47.4244 1.99167 48.6361C3.2027 49.8478 4.82612 50.5577 6.53751 50.6238C8.2489 50.69 9.9222 50.1075 11.223 48.9929L43.8289 16.4026L76.4347 48.9929C77.7041 50.2706 79.4281 50.9924 81.2287 51Z" fill="#80FF00"/>
</svg>
